<svg width="36" height="36" viewBox="0 0 36 36" fill="none" xmlns="http://www.w3.org/2000/svg">
<rect width="36" height="36" rx="6" fill="#FBF6E7"/>
<path d="M15.4313 9.18187C16.3148 7.60604 18.6852 7.60604 19.5687 9.18187L27.7229 23.7117C27.914 24.0522 28.0092 24.434 27.9993 24.8199C27.9894 25.2059 27.8747 25.5828 27.6663 25.9139C27.458 26.2451 27.1632 26.5192 26.8105 26.7095C26.4579 26.8998 26.0595 26.9999 25.6542 27H9.3458C8.94048 26.9999 8.5421 26.8998 8.18948 26.7095C7.83685 26.5192 7.542 26.2451 7.33367 25.9139C7.12533 25.5828 7.01062 25.2059 7.0007 24.8199C6.99079 24.434 7.08601 24.0522 7.27708 23.7117L15.4313 9.18187ZM17.5 14.2299C17.2333 14.2299 16.9776 14.3308 16.789 14.5104C16.6004 14.69 16.4945 14.9336 16.4945 15.1877V18.3802C16.4945 18.6342 16.6004 18.8778 16.789 19.0574C16.9776 19.237 17.2333 19.3379 17.5 19.3379C17.7667 19.3379 18.0224 19.237 18.211 19.0574C18.3996 18.8778 18.5055 18.6342 18.5055 18.3802V15.1877C18.5055 14.9336 18.3996 14.69 18.211 14.5104C18.0224 14.3308 17.7667 14.2299 17.5 14.2299ZM18.8407 21.892C18.8407 21.5533 18.6995 21.2285 18.448 20.989C18.1966 20.7495 17.8556 20.6149 17.5 20.6149C17.1444 20.6149 16.8034 20.7495 16.552 20.989C16.3005 21.2285 16.1593 21.5533 16.1593 21.892C16.1593 22.2306 16.3005 22.5555 16.552 22.7949C16.8034 23.0344 17.1444 23.169 17.5 23.169C17.8556 23.169 18.1966 23.0344 18.448 22.7949C18.6995 22.5555 18.8407 22.2306 18.8407 21.892Z" fill="#F0A30F"/>
</svg>
