<svg width="120" height="121" viewBox="0 0 120 121" fill="none" xmlns="http://www.w3.org/2000/svg">
<circle cx="60" cy="60.5" r="60" fill="url(#paint0_linear_3887_748)"/>
<path d="M56.2168 24.8298C58.3112 24.0564 60.6175 24.0564 62.7119 24.8298H62.7129L86.4629 33.6042H86.4619C88.2272 34.2562 89.7556 35.4263 90.8369 36.9636C91.9184 38.5013 92.5002 40.332 92.5 42.2107V60.1375C92.5001 66.1966 90.7875 72.1339 87.5576 77.283C84.328 82.4314 79.7101 86.587 74.2256 89.2888H74.2246L62.8457 94.8914C61.7943 95.4094 60.6369 95.6784 59.4648 95.6785C58.4389 95.6785 57.4237 95.4727 56.4814 95.074L56.083 94.8914L44.7031 89.2859C39.2185 86.584 34.6008 82.4277 31.3711 77.2791C28.1413 72.1301 26.4287 66.1935 26.4287 60.1345V42.2136C26.4279 40.3347 27.0095 38.5037 28.0908 36.9656C29.1721 35.4275 30.7 34.2565 32.4658 33.6042L56.2158 24.8298H56.2168ZM58.5713 69.9783C58.5713 70.1897 58.6569 70.4003 58.8203 70.5613C58.985 70.7234 59.2163 70.821 59.4648 70.821C59.7134 70.8209 59.9448 70.7234 60.1094 70.5613C60.2727 70.4003 60.3574 70.1896 60.3574 69.9783V57.6003L61.6211 56.8816C62.4402 56.4156 63.0729 55.7007 63.4287 54.8542C63.7842 54.0086 63.8462 53.0733 63.6064 52.1912C63.3664 51.3086 62.8354 50.5211 62.0879 49.9558C61.3395 49.39 60.4166 49.0799 59.4639 49.0798C58.5113 49.08 57.59 49.3902 56.8418 49.9558C56.0941 50.5211 55.5624 51.3084 55.3223 52.1912C55.0825 53.0733 55.1445 54.0086 55.5 54.8542C55.8558 55.7007 56.4886 56.4156 57.3076 56.8816L58.5713 57.6003V69.9783Z" fill="url(#paint1_linear_3887_748)" stroke="#C2FFBD" stroke-width="5"/>
<path d="M80.3386 41.679C83.2986 43.4856 83.4317 44.153 84.094 47.4899" stroke="#FFF072" stroke-width="4" stroke-linecap="round"/>
<circle cx="59.4647" cy="52.9999" r="2.67857" fill="#63FF88"/>
<circle cx="59.4647" cy="53.5355" r="6.42857" fill="#C2FFBD"/>
<defs>
<linearGradient id="paint0_linear_3887_748" x1="60" y1="0.5" x2="60" y2="120.5" gradientUnits="userSpaceOnUse">
<stop stop-color="#88FC8C"/>
<stop offset="0.5" stop-color="#0BF574"/>
<stop offset="1" stop-color="#14CF71"/>
</linearGradient>
<linearGradient id="paint1_linear_3887_748" x1="45.0134" y1="26.7498" x2="73.1957" y2="93.4823" gradientUnits="userSpaceOnUse">
<stop stop-color="#FFA71A"/>
<stop offset="0.33149" stop-color="#F9CB24"/>
<stop offset="0.487221" stop-color="#FBB622"/>
<stop offset="0.642951" stop-color="#FCA121"/>
<stop offset="0.827882" stop-color="#F9CB24"/>
<stop offset="1" stop-color="#FF771D"/>
</linearGradient>
</defs>
</svg>
