<svg width="120" height="121" viewBox="0 0 120 121" fill="none" xmlns="http://www.w3.org/2000/svg">
<circle cx="60" cy="60.5" r="60" fill="url(#paint0_linear_3867_1431)"/>
<path d="M71.1445 26.5C83.9275 26.5001 94.4998 36.593 94.5 49.6396V49.6416C94.4962 55.858 92.0377 61.8213 87.6602 66.2207C83.2822 70.6206 77.3423 73.0958 71.1455 73.0996H71.1338C70.0646 73.0952 68.9987 73.0107 67.9434 72.8525C67.6277 73.4476 67.2208 73.9964 66.7285 74.4736C65.523 75.6423 63.9115 76.2982 62.2314 76.2998H59.1562V79.4004C59.156 82.9771 56.266 85.9003 52.6768 85.9004H49.6045V87.4004C49.6044 89.5445 48.7565 91.6031 47.2441 93.123C45.7313 94.6434 43.677 95.5 41.5322 95.5H33.5723C31.4275 95.5 29.3732 94.6434 27.8604 93.123C26.348 91.6031 25.5001 89.5445 25.5 87.4004V80.4492C25.5001 77.4538 26.6843 74.5819 28.7959 72.4639L48.041 53.1152C47.8865 52.0812 47.8021 51.0374 47.7891 49.9912L47.7881 49.9746V49.958C47.792 43.7418 50.2515 37.7792 54.6289 33.3799C59.0068 28.9801 64.9459 26.5038 71.1426 26.5H71.1445ZM75.9199 43.3398C75.5316 43.34 75.1564 43.4956 74.8779 43.7754C74.5992 44.0557 74.4405 44.4382 74.4404 44.8398C74.4404 45.2417 74.599 45.6249 74.8779 45.9053C75.1564 46.1851 75.5316 46.3397 75.9199 46.3398C76.3084 46.3398 76.6843 46.1852 76.9629 45.9053C77.2418 45.6249 77.4004 45.2417 77.4004 44.8398C77.4003 44.4382 77.2416 44.0557 76.9629 43.7754C76.6843 43.4955 76.3084 43.3398 75.9199 43.3398Z" fill="url(#paint1_linear_3867_1431)" stroke="#FFD8FA" stroke-width="5"/>
<path d="M61.9041 37.5211C59.2838 38.7991 57.6598 40.1639 57.4435 42.6545" stroke="#B6BCE9" stroke-width="4" stroke-linecap="round"/>
<defs>
<linearGradient id="paint0_linear_3867_1431" x1="60" y1="0.5" x2="60" y2="120.5" gradientUnits="userSpaceOnUse">
<stop stop-color="#FCA1FF"/>
<stop offset="1" stop-color="#FF6DE9"/>
</linearGradient>
<linearGradient id="paint1_linear_3867_1431" x1="59.9518" y1="29" x2="60.0482" y2="93" gradientUnits="userSpaceOnUse">
<stop offset="0.18768" stop-color="#8286A9"/>
<stop offset="0.428107" stop-color="#606587"/>
<stop offset="0.673271" stop-color="#8286A9"/>
<stop offset="0.768568" stop-color="#606588"/>
<stop offset="0.945122" stop-color="#8286A9"/>
<stop offset="0.995619" stop-color="#3F4366"/>
</linearGradient>
</defs>
</svg>
