<svg width="36" height="36" viewBox="0 0 36 36" fill="none" xmlns="http://www.w3.org/2000/svg">
<rect width="36" height="36" rx="6" fill="#F2F2FB"/>
<path fill-rule="evenodd" clip-rule="evenodd" d="M12.4742 8.30481C16.1464 7.8984 19.8522 7.8984 23.5244 8.30481C25.6799 8.54509 27.4201 10.2388 27.6726 12.4036C28.1091 16.1208 28.1091 19.878 27.6726 23.5964C27.4189 25.7589 25.6787 27.4537 23.5244 27.6952C19.8522 28.1016 16.1464 28.1016 12.4742 27.6952C10.3187 27.4537 8.57848 25.7589 8.326 23.5964C7.89133 19.8777 7.89133 16.1211 8.326 12.4024C8.57848 10.2388 10.3199 8.54509 12.4742 8.30363M19.1791 13.287C19.1792 13.4416 19.1488 13.5948 19.0895 13.7377C19.0303 13.8807 18.9435 14.0106 18.834 14.12C18.7245 14.2294 18.5945 14.3162 18.4513 14.3755C18.3082 14.4348 18.1548 14.4653 17.9999 14.4654C17.687 14.4655 17.3868 14.3416 17.1655 14.1208C16.9441 13.9 16.8196 13.6005 16.8195 13.2881C16.8195 12.9758 16.9438 12.6762 17.165 12.4553C17.3863 12.2344 17.6864 12.1103 17.9993 12.1103C18.3122 12.1103 18.6123 12.2344 18.8336 12.4553C19.0548 12.6762 19.1791 12.9746 19.1791 13.287ZM17.9993 16.5271C18.234 16.5271 18.459 16.6202 18.625 16.7859C18.7909 16.9515 18.8842 17.1762 18.8842 17.4105V23.2996C18.8842 23.5339 18.7909 23.7586 18.625 23.9242C18.459 24.0899 18.234 24.1829 17.9993 24.1829C17.7646 24.1829 17.5396 24.0899 17.3736 23.9242C17.2077 23.7586 17.1144 23.5339 17.1144 23.2996V17.4105C17.1144 17.1762 17.2077 16.9515 17.3736 16.7859C17.5396 16.6202 17.7646 16.5271 17.9993 16.5271Z" fill="#3856DC"/>
</svg>
