<svg width="36" height="36" viewBox="0 0 36 36" fill="none" xmlns="http://www.w3.org/2000/svg">
<rect width="36" height="36" rx="6" fill="#ECF5F5"/>
<path fill-rule="evenodd" clip-rule="evenodd" d="M13 8C11.6739 8 10.4021 8.52678 9.46447 9.46447C8.52678 10.4021 8 11.6739 8 13V23C8 24.3261 8.52678 25.5979 9.46447 26.5355C10.4021 27.4732 11.6739 28 13 28H23C24.3261 28 25.5979 27.4732 26.5355 26.5355C27.4732 25.5979 28 24.3261 28 23V13C28 11.6739 27.4732 10.4021 26.5355 9.46447C25.5979 8.52678 24.3261 8 23 8H13ZM21.73 16.684C21.8198 16.5881 21.8899 16.4755 21.9362 16.3526C21.9825 16.2296 22.0041 16.0988 21.9998 15.9675C21.9956 15.8362 21.9655 15.707 21.9113 15.5873C21.8571 15.4677 21.7799 15.3598 21.684 15.27C21.5881 15.1802 21.4755 15.1101 21.3526 15.0638C21.2296 15.0175 21.0988 14.9959 20.9675 15.0002C20.8362 15.0044 20.707 15.0345 20.5873 15.0887C20.4677 15.1429 20.3598 15.2201 20.27 15.316L17.187 18.606L15.664 17.253C15.4645 17.0871 15.2083 17.0053 14.9495 17.0248C14.6907 17.0443 14.4497 17.1637 14.2773 17.3576C14.1049 17.5516 14.0147 17.8049 14.0256 18.0642C14.0366 18.3234 14.1479 18.5683 14.336 18.747L16.586 20.747C16.7807 20.9199 17.0352 21.0101 17.2953 20.9983C17.5554 20.9866 17.8007 20.8738 17.979 20.684L21.73 16.684Z" fill="#33B367"/>
</svg>
