<svg width="128" height="128" viewBox="0 0 128 128" fill="none" xmlns="http://www.w3.org/2000/svg">
<circle cx="64" cy="64" r="64" fill="url(#paint0_linear_3884_392)"/>
<path d="M76.9755 50.0934L54.9189 68.6701L27.2182 57.5741C26.9277 57.458 26.6116 57.4211 26.3022 57.4672C25.9928 57.5133 25.7012 57.6408 25.4572 57.8365C25.2132 58.0323 25.0256 58.2893 24.9135 58.5813C24.8015 58.8734 24.7689 59.1899 24.8193 59.4987L29.309 87.4C29.6812 89.7125 30.9566 91.7824 32.8549 93.1545C34.7532 94.5265 37.1188 95.0883 39.4313 94.7161L77.7956 88.5428C80.1081 88.1707 82.178 86.8952 83.55 84.9969C84.9221 83.0986 85.4838 80.733 85.1117 78.4206L80.9026 52.263L77.4149 52.8243L76.9755 50.0934Z" fill="#367AF2"/>
<path d="M76.9755 50.0934L54.9189 68.6701L27.2182 57.5741C26.9277 57.458 26.6116 57.4211 26.3022 57.4672C25.9928 57.5133 25.7012 57.6408 25.4572 57.8365C25.2132 58.0323 25.0256 58.2893 24.9135 58.5813C24.8015 58.8734 24.7689 59.1899 24.8193 59.4987L29.309 87.4C29.6812 89.7125 30.9566 91.7824 32.8549 93.1545C34.7532 94.5265 37.1188 95.0883 39.4313 94.7161L77.7956 88.5428C80.1081 88.1707 82.178 86.8952 83.55 84.9969C84.9221 83.0986 85.4838 80.733 85.1117 78.4206L80.9026 52.263L77.4149 52.8243L76.9755 50.0934Z" fill="url(#paint1_linear_3884_392)"/>
<path d="M76.9755 50.0934L54.9189 68.6701L27.2182 57.5741C26.9277 57.458 26.6116 57.4211 26.3022 57.4672C25.9928 57.5133 25.7012 57.6408 25.4572 57.8365C25.2132 58.0323 25.0256 58.2893 24.9135 58.5813C24.8015 58.8734 24.7689 59.1899 24.8193 59.4987L29.309 87.4C29.6812 89.7125 30.9566 91.7824 32.8549 93.1545C34.7532 94.5265 37.1188 95.0883 39.4313 94.7161L77.7956 88.5428C80.1081 88.1707 82.178 86.8952 83.55 84.9969C84.9221 83.0986 85.4838 80.733 85.1117 78.4206L80.9026 52.263L77.4149 52.8243L76.9755 50.0934Z" fill="url(#paint2_linear_3884_392)"/>
<path d="M76.9755 50.0934L54.9189 68.6701L27.2182 57.5741C26.9277 57.458 26.6116 57.4211 26.3022 57.4672C25.9928 57.5133 25.7012 57.6408 25.4572 57.8365C25.2132 58.0323 25.0256 58.2893 24.9135 58.5813C24.8015 58.8734 24.7689 59.1899 24.8193 59.4987L29.309 87.4C29.6812 89.7125 30.9566 91.7824 32.8549 93.1545C34.7532 94.5265 37.1188 95.0883 39.4313 94.7161L77.7956 88.5428C80.1081 88.1707 82.178 86.8952 83.55 84.9969C84.9221 83.0986 85.4838 80.733 85.1117 78.4206L80.9026 52.263L77.4149 52.8243L76.9755 50.0934Z" fill="url(#paint3_linear_3884_392)" fill-opacity="0.75"/>
<path d="M78.4652 50.5208L81.8861 49.9703L86.413 78.1026C86.8674 80.9266 86.2045 83.8197 84.5577 86.145C82.9099 88.4717 80.4105 90.0388 77.606 90.4901L39.9739 96.5456C37.1695 96.9969 34.3046 96.293 32.0101 94.6006C29.717 92.9094 28.18 90.3702 27.7255 87.5462L23.2359 59.6454C23.1306 58.9956 23.1954 58.3279 23.4269 57.7096L23.5216 57.4807C23.7591 56.9543 24.1159 56.487 24.5675 56.1185C25.0838 55.6972 25.704 55.4212 26.3653 55.3228L26.614 55.2946C27.1944 55.2481 27.778 55.3396 28.3175 55.5606L28.3184 55.5604L54.4049 66.2698L75.0673 48.5641L77.7769 46.2428L78.4652 50.5208Z" fill="url(#paint4_linear_3884_392)" fill-opacity="0.7" stroke="#FCEBFF" stroke-width="4"/>
<path d="M78.4787 50.519L81.8871 49.9706L82.2611 52.2951C82.3636 52.9345 82.3018 53.5917 82.0783 54.2019C81.8548 54.8125 81.4761 55.3579 80.9752 55.78L57.8817 75.239C57.37 75.6701 56.7508 75.9561 56.0875 76.0628C55.424 76.1696 54.7456 76.0925 54.1244 75.8436L26.0933 64.6113C25.4852 64.3676 24.9546 63.9685 24.5508 63.4589C24.1472 62.9496 23.8823 62.345 23.779 61.7057L23.4421 59.6116C22.9881 56.79 23.6464 53.8985 25.2862 51.5739C26.9272 49.2478 29.4181 47.6797 32.2162 47.2293L69.7076 41.1964C72.0808 40.8145 74.3989 41.2668 76.3702 42.333L77.237 42.8019L78.4787 50.519Z" fill="url(#paint5_linear_3884_392)" stroke="#FCEBFF" stroke-width="4"/>
<path d="M101.686 68.7402C101.492 69.8277 100.454 70.5523 99.3664 70.3588L91.1065 68.8887C91.0713 69.0229 91.0239 69.1549 90.9603 69.2812C90.1428 70.903 88.8234 72.2182 87.1992 73.0308C85.5751 73.8432 83.7323 74.1099 81.9445 73.7917C80.1566 73.4735 78.5191 72.5873 77.2751 71.2645C76.031 69.9414 75.2464 68.2517 75.0386 66.4475C75.0225 66.3069 75.0236 66.1667 75.0368 66.0286L66.777 64.5585C65.6895 64.3649 64.9648 63.3264 65.1584 62.239L66.125 56.8077C66.1942 56.419 66.377 56.0594 66.6502 55.7744L70.8188 51.4238L72.3238 42.9679C72.666 41.045 73.3844 39.2085 74.4364 37.563C75.4884 35.9175 76.854 34.495 78.4556 33.3773C80.0573 32.2596 81.8637 31.4678 83.7712 31.0481C85.6786 30.6285 87.6501 30.5889 89.5729 30.9311C91.4957 31.2733 93.3324 31.9908 94.9779 33.0427C96.6235 34.0948 98.0457 35.4612 99.1634 37.0629C100.281 38.6646 101.073 40.4711 101.493 42.3785C101.912 44.2859 101.952 46.2575 101.61 48.1802L100.105 56.6362L102.516 62.1579C102.674 62.5196 102.722 62.9203 102.653 63.3089L101.686 68.7402Z" fill="url(#paint6_linear_3884_392)" stroke="#FCEBFF" stroke-width="4" stroke-linejoin="round"/>
<path d="M91.9999 39.2175C93.875 40.943 93.8755 41.4431 93.8756 43.943" stroke="#FFF072" stroke-width="4" stroke-linecap="round"/>
<path d="M109.557 45.0052C111.603 49.8951 111.581 51.0021 109 55.4965" stroke="#FCEBFF" stroke-width="4" stroke-linecap="round"/>
<path d="M72.1422 26.9157C67.6395 29.7123 67.0151 30.6267 66.5101 35.7846" stroke="#FCEBFF" stroke-width="4" stroke-linecap="round"/>
<path d="M35.2775 54.6873C32.9927 56.3052 31.6219 58.1623 31.1649 60.148C29.3372 63.1266 28.7944 57.4267 29.0658 56.3052C29.3373 55.1838 29.7943 54.6873 31.3506 53.8231C32.9069 52.9589 37.8335 52.2052 35.2775 54.6873Z" fill="#50F9FF"/>
<defs>
<linearGradient id="paint0_linear_3884_392" x1="64" y1="0" x2="64" y2="128" gradientUnits="userSpaceOnUse">
<stop stop-color="#E9A6FF"/>
<stop offset="0.901905" stop-color="#BE5DFF"/>
</linearGradient>
<linearGradient id="paint1_linear_3884_392" x1="60.7335" y1="59.6447" x2="82.5431" y2="86.4049" gradientUnits="userSpaceOnUse">
<stop offset="0.228" stop-color="#0094F0" stop-opacity="0"/>
<stop offset="0.431" stop-color="#0094F0"/>
</linearGradient>
<linearGradient id="paint2_linear_3884_392" x1="45.1171" y1="58.5868" x2="31.7359" y2="96.4339" gradientUnits="userSpaceOnUse">
<stop offset="0.228" stop-color="#0094F0" stop-opacity="0"/>
<stop offset="0.431" stop-color="#0094F0"/>
</linearGradient>
<linearGradient id="paint3_linear_3884_392" x1="70.8378" y1="73.7869" x2="76.8067" y2="92.2477" gradientUnits="userSpaceOnUse">
<stop stop-color="#2764E7" stop-opacity="0"/>
<stop offset="1" stop-color="#2764E7"/>
</linearGradient>
<linearGradient id="paint4_linear_3884_392" x1="61.5279" y1="56.5281" x2="73.1657" y2="94.1951" gradientUnits="userSpaceOnUse">
<stop offset="0.533" stop-color="#FF6CE8" stop-opacity="0"/>
<stop offset="1" stop-color="#FF6CE8" stop-opacity="0.5"/>
</linearGradient>
<linearGradient id="paint5_linear_3884_392" x1="38.8141" y1="39.2735" x2="66.3945" y2="83.2011" gradientUnits="userSpaceOnUse">
<stop stop-color="#6CE0FF"/>
<stop offset="0.462" stop-color="#29C3FF"/>
<stop offset="1" stop-color="#4894FE"/>
</linearGradient>
<linearGradient id="paint6_linear_3884_392" x1="89.2225" y1="32.9002" x2="82.2949" y2="71.8229" gradientUnits="userSpaceOnUse">
<stop stop-color="#FFCD0F"/>
<stop offset="1" stop-color="#FF6E26"/>
</linearGradient>
</defs>
</svg>
