<svg width="138" height="138" viewBox="0 0 138 138" fill="none" xmlns="http://www.w3.org/2000/svg">
  <circle cx="69" cy="69" r="69" fill="url(#paint0_linear_17_872)"/>
  <path d="M67.5324 23.223C70.6025 22.8357 73.6968 23.6935 76.1349 25.6026C78.5723 27.5112 80.1542 30.3144 80.5371 33.3941L88.47 97.1948C88.8528 100.274 88.0062 103.384 86.1113 105.839C84.216 108.295 81.4272 109.895 78.3571 110.282L44.4762 114.556C41.4062 114.943 38.3116 114.085 35.8737 112.176C33.4363 110.268 31.8544 107.465 31.4715 104.385L23.5386 40.5842C23.1557 37.5046 24.0025 34.395 25.8973 31.9398C27.7925 29.4843 30.5814 27.8843 33.6515 27.4969L67.5324 23.223ZM53.3105 95.3571C53.06 95.3887 52.8291 95.5196 52.6704 95.7253C52.5114 95.9314 52.4377 96.1961 52.4706 96.4611C52.5036 96.7261 52.6399 96.9643 52.8444 97.1246C53.0485 97.2845 53.3043 97.354 53.5549 97.3224L65.3394 95.8358C65.59 95.8042 65.8208 95.6734 65.9796 95.4677C66.1386 95.2615 66.2123 94.9969 66.1793 94.7318C66.1463 94.4668 66.0102 94.2286 65.8056 94.0683C65.6014 93.9084 65.3456 93.8389 65.0951 93.8705L53.3105 95.3571Z" fill="url(#paint1_linear_17_872)"/>
  <path d="M67.5324 23.223C70.6025 22.8357 73.6968 23.6935 76.1349 25.6026C78.5723 27.5112 80.1542 30.3144 80.5371 33.3941L88.47 97.1948C88.8528 100.274 88.0062 103.384 86.1113 105.839C84.216 108.295 81.4272 109.895 78.3571 110.282L44.4762 114.556C41.4062 114.943 38.3116 114.085 35.8737 112.176C33.4363 110.268 31.8544 107.465 31.4715 104.385L23.5386 40.5842C23.1557 37.5046 24.0025 34.395 25.8973 31.9398C27.7925 29.4843 30.5814 27.8843 33.6515 27.4969L67.5324 23.223ZM53.3105 95.3571C53.06 95.3887 52.8291 95.5196 52.6704 95.7253C52.5114 95.9314 52.4377 96.1961 52.4706 96.4611C52.5036 96.7261 52.6399 96.9643 52.8444 97.1246C53.0485 97.2845 53.3043 97.354 53.5549 97.3224L65.3394 95.8358C65.59 95.8042 65.8208 95.6734 65.9796 95.4677C66.1386 95.2615 66.2123 94.9969 66.1793 94.7318C66.1463 94.4668 66.0102 94.2286 65.8056 94.0683C65.6014 93.9084 65.3456 93.8389 65.0951 93.8705L53.3105 95.3571Z" fill="black" fill-opacity="0.1" style="mix-blend-mode:hard-light"/>
  <path d="M67.5324 23.223C70.6025 22.8357 73.6968 23.6935 76.1349 25.6026C78.5723 27.5112 80.1542 30.3144 80.5371 33.3941L88.47 97.1948C88.8528 100.274 88.0062 103.384 86.1113 105.839C84.216 108.295 81.4272 109.895 78.3571 110.282L44.4762 114.556C41.4062 114.943 38.3116 114.085 35.8737 112.176C33.4363 110.268 31.8544 107.465 31.4715 104.385L23.5386 40.5842C23.1557 37.5046 24.0025 34.395 25.8973 31.9398C27.7925 29.4843 30.5814 27.8843 33.6515 27.4969L67.5324 23.223ZM53.3105 95.3571C53.06 95.3887 52.8291 95.5196 52.6704 95.7253C52.5114 95.9314 52.4377 96.1961 52.4706 96.4611C52.5036 96.7261 52.6399 96.9643 52.8444 97.1246C53.0485 97.2845 53.3043 97.354 53.5549 97.3224L65.3394 95.8358C65.59 95.8042 65.8208 95.6734 65.9796 95.4677C66.1386 95.2615 66.2123 94.9969 66.1793 94.7318C66.1463 94.4668 66.0102 94.2286 65.8056 94.0683C65.6014 93.9084 65.3456 93.8389 65.0951 93.8705L53.3105 95.3571Z" stroke="#FFFAD0" stroke-width="4"/>
  <path d="M109.458 82.6826C109.264 83.77 108.226 84.4947 107.138 84.3012L98.9138 82.8374C98.8787 82.9693 98.8324 83.0991 98.7698 83.2234C97.9545 84.8407 96.6391 86.1526 95.0194 86.963C93.3997 87.7731 91.5619 88.0388 89.779 87.7215C87.9961 87.4041 86.3628 86.5207 85.1222 85.2014C83.8815 83.882 83.0995 82.1968 82.8923 80.3975C82.8764 80.2592 82.8768 80.1213 82.8893 79.9853L74.666 78.5217C73.5786 78.3282 72.8539 77.2897 73.0474 76.2022L74.0106 70.7902C74.0798 70.4015 74.2626 70.0419 74.5358 69.7569L78.6885 65.4233L80.1877 57.0001C80.5289 55.0832 81.2436 53.252 82.2924 51.6117C83.341 49.9714 84.7028 48.5538 86.2993 47.4397C87.896 46.3255 89.697 45.5368 91.5986 45.1185C93.5001 44.7001 95.4655 44.6601 97.3824 45.0012C99.2993 45.3424 101.13 46.0581 102.771 47.1069C104.411 48.1556 105.828 49.5172 106.943 51.1138C108.057 52.7105 108.847 54.5108 109.265 56.4123C109.683 58.3137 109.722 60.2791 109.381 62.196L107.882 70.6193L110.285 76.1195C110.443 76.4813 110.49 76.8818 110.421 77.2706L109.458 82.6826Z" fill="url(#paint2_linear_17_872)" stroke="#FFFAD0" stroke-width="4" stroke-linejoin="round"/>
  <path d="M118.998 60.0107C120.836 64.9824 120.768 66.0874 118 70.4692" stroke="#FFFAD0" stroke-width="4" stroke-linecap="round"/>
  <path d="M101.124 53.2743C103 54.9999 103 55.5 103 57.9999" stroke="#FFF072" stroke-width="4" stroke-linecap="round"/>
  <path d="M76.1726 43.82C72.1616 47.2851 71.6877 48.2857 71.9939 53.4593" stroke="#FFFAD0" stroke-width="4" stroke-linecap="round"/>
  <defs>
    <linearGradient id="paint0_linear_17_872" x1="69" y1="0" x2="69" y2="138" gradientUnits="userSpaceOnUse">
      <stop stop-color="#FFE852"/>
      <stop offset="1" stop-color="#FF8D6B"/>
    </linearGradient>
    <linearGradient id="paint1_linear_17_872" x1="63.7543" y1="25.7154" x2="38.5904" y2="109.148" gradientUnits="userSpaceOnUse">
      <stop stop-color="#AA71FF"/>
      <stop offset="0.174512" stop-color="#AA71FF"/>
      <stop offset="0.349024" stop-color="#8B53DF"/>
      <stop offset="0.75" stop-color="#AA71FF"/>
      <stop offset="1" stop-color="#6C35BF"/>
    </linearGradient>
    <linearGradient id="paint2_linear_17_872" x1="97.0319" y1="46.9703" x2="90.1294" y2="85.7527" gradientUnits="userSpaceOnUse">
      <stop stop-color="#FFCD0F"/>
      <stop offset="1" stop-color="#FF6E26"/>
    </linearGradient>
  </defs>
</svg>
