<svg width="36" height="36" viewBox="0 0 36 36" fill="none" xmlns="http://www.w3.org/2000/svg">
<rect width="36" height="36" rx="6" fill="#FFF3F5"/>
<path d="M18 8L18.642 8.005L19.258 8.022L19.557 8.035L20.136 8.069L20.689 8.115C25.376 8.57 27.339 10.448 27.855 15.021L27.885 15.311L27.931 15.864L27.972 16.591L27.978 16.741L27.995 17.358L28 18L27.995 18.642L27.978 19.258L27.965 19.557L27.931 20.136L27.885 20.689C27.43 25.376 25.552 27.339 20.979 27.855L20.689 27.885L20.136 27.931L19.409 27.972L19.259 27.978L18.642 27.995L18 28L17.358 27.995L16.742 27.978L16.443 27.965L15.864 27.931L15.311 27.885C10.624 27.43 8.66098 25.552 8.14498 20.979L8.11498 20.689L8.06898 20.136L8.02798 19.409L8.02198 19.259L8.00498 18.642L8.00098 18.324V17.676L8.00498 17.358L8.02198 16.742L8.03498 16.443L8.06898 15.864L8.11498 15.311C8.56998 10.624 10.448 8.661 15.021 8.145L15.311 8.115L15.864 8.069L16.591 8.028L16.741 8.022L17.358 8.005C17.568 8.00167 17.782 8 18 8ZM18.01 21L17.883 21.007C17.6399 21.0359 17.4159 21.153 17.2534 21.336C17.0909 21.519 17.0011 21.7552 17.0011 22C17.0011 22.2448 17.0909 22.481 17.2534 22.664C17.4159 22.847 17.6399 22.9641 17.883 22.993L18 23L18.127 22.993C18.37 22.9641 18.594 22.847 18.7566 22.664C18.9191 22.481 19.0089 22.2448 19.0089 22C19.0089 21.7552 18.9191 21.519 18.7566 21.336C18.594 21.153 18.37 21.0359 18.127 21.007L18.01 21ZM18 13C17.755 13 17.5186 13.09 17.3356 13.2527C17.1526 13.4155 17.0356 13.6397 17.007 13.883L17 14V18L17.007 18.117C17.0359 18.36 17.1529 18.5841 17.3359 18.7466C17.519 18.9091 17.7552 18.9989 18 18.9989C18.2447 18.9989 18.481 18.9091 18.664 18.7466C18.847 18.5841 18.9641 18.36 18.993 18.117L19 18V14L18.993 13.883C18.9643 13.6397 18.8474 13.4155 18.6643 13.2527C18.4813 13.09 18.2449 13 18 13Z" fill="#F75050"/>
</svg>
