<svg width="148" height="32" viewBox="0 0 148 32" fill="none" xmlns="http://www.w3.org/2000/svg">
<path d="M26.7503 18.3146C29.05 15.9823 30.5 14.0293 30.5 11.0881C30.5 9.45166 30.0105 7.85368 29.0962 6.50526C28.1819 5.15684 26.8858 4.12142 25.3792 3.53574C23.8725 2.95006 22.2261 2.84168 20.6574 3.22492C19.0887 3.60816 17.6715 4.46498 16.5931 5.68222M26.7503 18.3146C26.4643 18.6047 26.1248 18.8349 25.7511 18.9919C25.3774 19.1489 24.9769 19.2297 24.5724 19.2297C24.1679 19.2297 23.7674 19.1489 23.3937 18.9919C23.0678 18.8549 22.7679 18.6624 22.5068 18.4229M26.7503 18.3146C27.294 17.7631 27.5994 17.0151 27.5994 16.2352C27.5994 15.4553 27.294 14.7074 26.7503 14.1558L24.0229 11.3881C23.6983 11.0589 23.313 10.7977 22.889 10.6195C22.4649 10.4413 22.0104 10.3495 21.5513 10.3495C21.0923 10.3495 20.6378 10.4413 20.2137 10.6195C19.7896 10.7977 19.4043 11.0589 19.0798 11.3881L16.6003 13.9029C16.0565 14.4542 15.319 14.764 14.55 14.764C13.781 14.764 13.0435 14.4542 12.4997 13.9029C11.956 13.3513 11.6506 12.6033 11.6506 11.8234C11.6506 11.0435 11.956 10.2956 12.4997 9.74401L16.5931 5.68222M16.5931 5.68222C16.4322 5.83458 16.2204 5.91945 16.0003 5.91973C15.7802 5.92 15.5682 5.83566 15.4069 5.68369C14.3286 4.46654 12.9115 3.60976 11.343 3.22647C9.77442 2.84319 8.12813 2.95145 6.62151 3.53694C5.11489 4.12244 3.8188 5.15763 2.90441 6.50582C1.99002 7.85401 1.50032 9.45178 1.5 11.0881C1.5 14.4705 3.675 16.9705 5.85 19.1764L13.8757 27.0618C14.1412 27.3512 14.4614 27.5834 14.8172 27.7445C15.1731 27.9057 15.5573 27.9924 15.947 27.9995C16.3367 28.0067 16.7237 27.9341 17.0851 27.7861C17.4465 27.6381 17.7748 27.4178 18.0503 27.1382C18.3358 26.8483 18.5621 26.5041 18.7163 26.1254C18.8705 25.7467 18.9496 25.3409 18.9491 24.9311C18.9486 24.5214 18.8684 24.1157 18.7132 23.7375C18.5785 23.4093 18.3898 23.1074 18.1553 22.8443M18.1553 22.8443C18.1174 22.8061 18.0804 22.7668 18.0445 22.7264C18.0825 22.7648 18.1194 22.8041 18.1553 22.8443ZM18.1553 22.8443C18.4125 23.1042 18.7132 23.3162 19.0439 23.4702C19.4233 23.6468 19.8342 23.7434 20.2515 23.754C20.6688 23.7646 21.084 23.6891 21.4716 23.532C21.8593 23.3749 22.2114 23.1395 22.5066 22.8401C22.8018 22.5407 23.0339 22.1836 23.1888 21.7904C23.3437 21.3973 23.4182 20.9763 23.4077 20.553C23.3972 20.1297 23.302 19.7131 23.1278 19.3283C22.9752 18.9911 22.7648 18.6847 22.5068 18.4229M22.5068 18.4229C22.4685 18.3878 22.4311 18.3517 22.3945 18.3146C22.4328 18.3498 22.4703 18.3859 22.5068 18.4229Z" stroke="url(#paint0_linear_4380_16)" stroke-width="3" stroke-linecap="round" stroke-linejoin="round"/>
<path d="M46.874 3C47.7513 3 48.5073 3.14933 49.142 3.448C49.786 3.74667 50.276 4.17133 50.612 4.722C50.948 5.26333 51.116 5.898 51.116 6.626C51.116 7.34467 50.948 7.97933 50.612 8.53C50.276 9.07133 49.786 9.49133 49.142 9.79C48.5073 10.0887 47.7513 10.238 46.874 10.238H42.324V7.914H46.692C47.1587 7.914 47.5227 7.802 47.784 7.578C48.0453 7.34467 48.176 7.02733 48.176 6.626C48.176 6.21533 48.0453 5.898 47.784 5.674C47.5227 5.44067 47.1587 5.324 46.692 5.324H42.576L43.878 3.98V13.5H40.98V3H46.874ZM61.3313 10.896C61.3313 11.512 61.1446 12.03 60.7713 12.45C60.398 12.87 59.866 13.1873 59.1753 13.402C58.4846 13.6167 57.654 13.724 56.6833 13.724C55.6846 13.724 54.8073 13.6027 54.0513 13.36C53.3046 13.1173 52.7213 12.7767 52.3013 12.338C51.8813 11.8993 51.6573 11.3907 51.6293 10.812H54.5273C54.5926 11.0267 54.7186 11.2133 54.9053 11.372C55.1013 11.5213 55.358 11.638 55.6753 11.722C55.9926 11.7967 56.3706 11.834 56.8093 11.834C57.3786 11.834 57.808 11.778 58.0973 11.666C58.396 11.554 58.5453 11.386 58.5453 11.162C58.5453 10.9847 58.4333 10.854 58.2093 10.77C57.9853 10.6767 57.6026 10.6067 57.0613 10.56L55.6473 10.448C54.7046 10.3827 53.9533 10.2427 53.3933 10.028C52.8426 9.804 52.446 9.51933 52.2033 9.174C51.9606 8.81933 51.8393 8.418 51.8393 7.97C51.8393 7.36333 52.026 6.864 52.3993 6.472C52.782 6.07067 53.3093 5.772 53.9813 5.576C54.6626 5.37067 55.456 5.268 56.3613 5.268C57.2573 5.268 58.0553 5.38467 58.7553 5.618C59.4553 5.85133 60.0153 6.178 60.4353 6.598C60.8553 7.00867 61.098 7.494 61.1633 8.054H58.2653C58.2186 7.87667 58.116 7.718 57.9573 7.578C57.7986 7.42867 57.5793 7.30733 57.2993 7.214C57.0193 7.12067 56.66 7.074 56.2213 7.074C55.708 7.074 55.316 7.13 55.0453 7.242C54.784 7.354 54.6533 7.51267 54.6533 7.718C54.6533 7.87667 54.7326 8.00267 54.8913 8.096C55.0593 8.18933 55.3673 8.25467 55.8153 8.292L57.6773 8.432C58.6013 8.488 59.3293 8.62333 59.8613 8.838C60.3933 9.04333 60.7713 9.31867 60.9953 9.664C61.2193 10.0093 61.3313 10.42 61.3313 10.896ZM62.536 5.38L63.978 5.66L65.406 5.38V13.5H62.536V5.38ZM63.964 4.722C63.4693 4.722 63.068 4.60067 62.76 4.358C62.452 4.106 62.298 3.76533 62.298 3.336C62.298 2.916 62.452 2.58 62.76 2.328C63.068 2.076 63.4693 1.95 63.964 1.95C64.4773 1.95 64.8833 2.076 65.182 2.328C65.49 2.58 65.644 2.916 65.644 3.336C65.644 3.76533 65.49 4.106 65.182 4.358C64.8833 4.60067 64.4773 4.722 63.964 4.722ZM76.5133 10.126C76.4386 10.8447 76.1773 11.4747 75.7293 12.016C75.2813 12.5573 74.698 12.9773 73.9793 13.276C73.27 13.5747 72.472 13.724 71.5853 13.724C70.6053 13.724 69.742 13.5467 68.9953 13.192C68.2486 12.8373 67.6653 12.3427 67.2453 11.708C66.8253 11.0733 66.6153 10.3407 66.6153 9.51C66.6153 8.67 66.8253 7.93267 67.2453 7.298C67.6653 6.66333 68.2486 6.16867 68.9953 5.814C69.742 5.45 70.6053 5.268 71.5853 5.268C72.472 5.268 73.27 5.422 73.9793 5.73C74.698 6.02867 75.2813 6.44867 75.7293 6.99C76.1773 7.522 76.4386 8.152 76.5133 8.88H73.6713C73.5686 8.404 73.3306 8.04 72.9573 7.788C72.584 7.52667 72.1266 7.396 71.5853 7.396C71.1653 7.396 70.7966 7.48 70.4793 7.648C70.1713 7.80667 69.9286 8.04467 69.7513 8.362C69.5833 8.67 69.4993 9.05267 69.4993 9.51C69.4993 9.958 69.5833 10.3407 69.7513 10.658C69.9286 10.966 70.1713 11.204 70.4793 11.372C70.7966 11.5307 71.1653 11.61 71.5853 11.61C72.1266 11.61 72.584 11.4747 72.9573 11.204C73.34 10.9333 73.578 10.574 73.6713 10.126H76.5133ZM82.4034 13.724C81.3767 13.724 80.4807 13.5513 79.7154 13.206C78.95 12.8513 78.3527 12.3567 77.9234 11.722C77.494 11.078 77.2794 10.3407 77.2794 9.51C77.2794 8.66067 77.494 7.91867 77.9234 7.284C78.3527 6.64933 78.95 6.15467 79.7154 5.8C80.4807 5.44533 81.3767 5.268 82.4034 5.268C83.4207 5.268 84.312 5.44533 85.0774 5.8C85.852 6.15467 86.454 6.64933 86.8834 7.284C87.3127 7.91867 87.5274 8.66067 87.5274 9.51C87.5274 10.3407 87.3127 11.078 86.8834 11.722C86.454 12.3567 85.852 12.8513 85.0774 13.206C84.312 13.5513 83.4207 13.724 82.4034 13.724ZM82.4034 11.61C82.87 11.61 83.2667 11.526 83.5934 11.358C83.9294 11.19 84.186 10.9473 84.3634 10.63C84.5407 10.3127 84.6294 9.93933 84.6294 9.51C84.6294 9.062 84.5407 8.684 84.3634 8.376C84.186 8.05867 83.9294 7.816 83.5934 7.648C83.2667 7.48 82.87 7.396 82.4034 7.396C81.9367 7.396 81.5354 7.48 81.1994 7.648C80.8634 7.816 80.6067 8.05867 80.4294 8.376C80.252 8.684 80.1634 9.05733 80.1634 9.496C80.1634 9.93467 80.252 10.3127 80.4294 10.63C80.6067 10.9473 80.8634 11.19 81.1994 11.358C81.5354 11.526 81.9367 11.61 82.4034 11.61ZM82.5854 2.076H85.3574L83.4674 4.722H80.8214L82.5854 2.076ZM88.7313 2.72H91.6013V13.5H88.7313V2.72ZM97.9346 13.724C96.908 13.724 96.012 13.5513 95.2466 13.206C94.4813 12.8513 93.884 12.3567 93.4546 11.722C93.0253 11.078 92.8106 10.3407 92.8106 9.51C92.8106 8.66067 93.0253 7.91867 93.4546 7.284C93.884 6.64933 94.4813 6.15467 95.2466 5.8C96.012 5.44533 96.908 5.268 97.9346 5.268C98.952 5.268 99.8433 5.44533 100.609 5.8C101.383 6.15467 101.985 6.64933 102.415 7.284C102.844 7.91867 103.059 8.66067 103.059 9.51C103.059 10.3407 102.844 11.078 102.415 11.722C101.985 12.3567 101.383 12.8513 100.609 13.206C99.8433 13.5513 98.952 13.724 97.9346 13.724ZM97.9346 11.61C98.4013 11.61 98.798 11.526 99.1246 11.358C99.4606 11.19 99.7173 10.9473 99.8946 10.63C100.072 10.3127 100.161 9.93933 100.161 9.51C100.161 9.062 100.072 8.684 99.8946 8.376C99.7173 8.05867 99.4606 7.816 99.1246 7.648C98.798 7.48 98.4013 7.396 97.9346 7.396C97.468 7.396 97.0666 7.48 96.7306 7.648C96.3946 7.816 96.138 8.05867 95.9606 8.376C95.7833 8.684 95.6946 9.05733 95.6946 9.496C95.6946 9.93467 95.7833 10.3127 95.9606 10.63C96.138 10.9473 96.3946 11.19 96.7306 11.358C97.0666 11.526 97.468 11.61 97.9346 11.61ZM111.249 11.484V10.126L111.347 9.79V7.83L111.249 7.536V5.506H114.105V11.372C114.105 12.352 113.876 13.192 113.419 13.892C112.961 14.592 112.322 15.124 111.501 15.488C110.689 15.852 109.727 16.034 108.617 16.034C107.879 16.034 107.193 15.936 106.559 15.74C105.933 15.5533 105.308 15.2733 104.683 14.9V12.744C105.261 13.1733 105.868 13.4813 106.503 13.668C107.147 13.864 107.791 13.962 108.435 13.962C109.349 13.962 110.045 13.766 110.521 13.374C111.006 12.982 111.249 12.352 111.249 11.484ZM107.819 12.66C107.063 12.66 106.391 12.506 105.803 12.198C105.215 11.89 104.748 11.4607 104.403 10.91C104.067 10.35 103.899 9.70133 103.899 8.964C103.899 8.21733 104.067 7.56867 104.403 7.018C104.748 6.46733 105.215 6.038 105.803 5.73C106.391 5.422 107.063 5.268 107.819 5.268C108.379 5.268 108.892 5.35667 109.359 5.534C109.825 5.702 110.241 5.93067 110.605 6.22C110.969 6.5 111.272 6.808 111.515 7.144C111.767 7.47067 111.958 7.79733 112.089 8.124C112.219 8.45067 112.285 8.74 112.285 8.992C112.285 9.33733 112.182 9.72 111.977 10.14C111.781 10.56 111.491 10.9613 111.109 11.344C110.726 11.7267 110.255 12.044 109.695 12.296C109.144 12.5387 108.519 12.66 107.819 12.66ZM108.785 10.714C109.335 10.714 109.825 10.5693 110.255 10.28C110.684 9.99067 111.048 9.552 111.347 8.964C111.039 8.36667 110.67 7.928 110.241 7.648C109.811 7.35867 109.326 7.214 108.785 7.214C108.374 7.214 108.015 7.284 107.707 7.424C107.408 7.564 107.179 7.76933 107.021 8.04C106.862 8.30133 106.783 8.60933 106.783 8.964C106.783 9.30933 106.862 9.61733 107.021 9.888C107.179 10.1493 107.408 10.3547 107.707 10.504C108.005 10.644 108.365 10.714 108.785 10.714ZM120.411 13.724C119.385 13.724 118.489 13.5513 117.723 13.206C116.958 12.8513 116.361 12.3567 115.931 11.722C115.502 11.078 115.287 10.3407 115.287 9.51C115.287 8.66067 115.502 7.91867 115.931 7.284C116.361 6.64933 116.958 6.15467 117.723 5.8C118.489 5.44533 119.385 5.268 120.411 5.268C121.429 5.268 122.32 5.44533 123.085 5.8C123.86 6.15467 124.462 6.64933 124.891 7.284C125.321 7.91867 125.535 8.66067 125.535 9.51C125.535 10.3407 125.321 11.078 124.891 11.722C124.462 12.3567 123.86 12.8513 123.085 13.206C122.32 13.5513 121.429 13.724 120.411 13.724ZM120.411 11.61C120.878 11.61 121.275 11.526 121.601 11.358C121.937 11.19 122.194 10.9473 122.371 10.63C122.549 10.3127 122.637 9.93933 122.637 9.51C122.637 9.062 122.549 8.684 122.371 8.376C122.194 8.05867 121.937 7.816 121.601 7.648C121.275 7.48 120.878 7.396 120.411 7.396C119.945 7.396 119.543 7.48 119.207 7.648C118.871 7.816 118.615 8.05867 118.437 8.376C118.26 8.684 118.171 9.05733 118.171 9.496C118.171 9.93467 118.26 10.3127 118.437 10.63C118.615 10.9473 118.871 11.19 119.207 11.358C119.543 11.526 119.945 11.61 120.411 11.61ZM136.007 10.896C136.007 11.512 135.82 12.03 135.447 12.45C135.074 12.87 134.542 13.1873 133.851 13.402C133.16 13.6167 132.33 13.724 131.359 13.724C130.36 13.724 129.483 13.6027 128.727 13.36C127.98 13.1173 127.397 12.7767 126.977 12.338C126.557 11.8993 126.333 11.3907 126.305 10.812H129.203C129.268 11.0267 129.394 11.2133 129.581 11.372C129.777 11.5213 130.034 11.638 130.351 11.722C130.668 11.7967 131.046 11.834 131.485 11.834C132.054 11.834 132.484 11.778 132.773 11.666C133.072 11.554 133.221 11.386 133.221 11.162C133.221 10.9847 133.109 10.854 132.885 10.77C132.661 10.6767 132.278 10.6067 131.737 10.56L130.323 10.448C129.38 10.3827 128.629 10.2427 128.069 10.028C127.518 9.804 127.122 9.51933 126.879 9.174C126.636 8.81933 126.515 8.418 126.515 7.97C126.515 7.36333 126.702 6.864 127.075 6.472C127.458 6.07067 127.985 5.772 128.657 5.576C129.338 5.37067 130.132 5.268 131.037 5.268C131.933 5.268 132.731 5.38467 133.431 5.618C134.131 5.85133 134.691 6.178 135.111 6.598C135.531 7.00867 135.774 7.494 135.839 8.054H132.941C132.894 7.87667 132.792 7.718 132.633 7.578C132.474 7.42867 132.255 7.30733 131.975 7.214C131.695 7.12067 131.336 7.074 130.897 7.074C130.384 7.074 129.992 7.13 129.721 7.242C129.46 7.354 129.329 7.51267 129.329 7.718C129.329 7.87667 129.408 8.00267 129.567 8.096C129.735 8.18933 130.043 8.25467 130.491 8.292L132.353 8.432C133.277 8.488 134.005 8.62333 134.537 8.838C135.069 9.04333 135.447 9.31867 135.671 9.664C135.895 10.0093 136.007 10.42 136.007 10.896Z" fill="#195FB5"/>
<path d="M75.5147 26.47L74.6187 26.652V18H77.4327V28.5H73.7787L67.7167 19.862L68.5987 19.68V28.5H65.7847V18H69.5367L75.5147 26.47ZM83.8155 28.724C82.7888 28.724 81.8928 28.5513 81.1275 28.206C80.3622 27.8513 79.7648 27.3567 79.3355 26.722C78.9062 26.078 78.6915 25.3407 78.6915 24.51C78.6915 23.6607 78.9062 22.9187 79.3355 22.284C79.7648 21.6493 80.3622 21.1547 81.1275 20.8C81.8928 20.4453 82.7888 20.268 83.8155 20.268C84.8328 20.268 85.7242 20.4453 86.4895 20.8C87.2642 21.1547 87.8662 21.6493 88.2955 22.284C88.7248 22.9187 88.9395 23.6607 88.9395 24.51C88.9395 25.3407 88.7248 26.078 88.2955 26.722C87.8662 27.3567 87.2642 27.8513 86.4895 28.206C85.7242 28.5513 84.8328 28.724 83.8155 28.724ZM83.8155 26.61C84.2822 26.61 84.6788 26.526 85.0055 26.358C85.3415 26.19 85.5982 25.9473 85.7755 25.63C85.9528 25.3127 86.0415 24.9393 86.0415 24.51C86.0415 24.062 85.9528 23.684 85.7755 23.376C85.5982 23.0587 85.3415 22.816 85.0055 22.648C84.6788 22.48 84.2822 22.396 83.8155 22.396C83.3488 22.396 82.9475 22.48 82.6115 22.648C82.2755 22.816 82.0188 23.0587 81.8415 23.376C81.6642 23.684 81.5755 24.0573 81.5755 24.496C81.5755 24.9347 81.6642 25.3127 81.8415 25.63C82.0188 25.9473 82.2755 26.19 82.6115 26.358C82.9475 26.526 83.3488 26.61 83.8155 26.61ZM89.7107 20.506H92.6227L93.0987 23.362V28.5H90.2427V23.194L89.7107 20.506ZM96.8507 20.38V22.816C96.5707 22.76 96.3047 22.7227 96.0527 22.704C95.81 22.676 95.586 22.662 95.3807 22.662C94.97 22.662 94.592 22.746 94.2467 22.914C93.9014 23.0727 93.6214 23.3387 93.4067 23.712C93.2014 24.0853 93.0987 24.5847 93.0987 25.21L92.5527 24.538C92.6274 23.9593 92.7394 23.418 92.8887 22.914C93.038 22.4007 93.2387 21.948 93.4907 21.556C93.752 21.1547 94.074 20.842 94.4567 20.618C94.8394 20.3847 95.306 20.268 95.8567 20.268C96.0154 20.268 96.1787 20.2773 96.3467 20.296C96.5147 20.3147 96.6827 20.3427 96.8507 20.38ZM104.902 28.5L104.524 25.504L105.014 24.524L104.538 23.292L105.21 17.72H108.178L107.352 24.286L107.856 28.5H104.902ZM105.518 24.51C105.387 25.35 105.126 26.0873 104.734 26.722C104.351 27.3567 103.861 27.8513 103.264 28.206C102.676 28.5513 102.004 28.724 101.248 28.724C100.464 28.724 99.7732 28.5513 99.1759 28.206C98.5879 27.8513 98.1259 27.3567 97.7899 26.722C97.4539 26.078 97.2859 25.3407 97.2859 24.51C97.2859 23.6607 97.4539 22.9187 97.7899 22.284C98.1259 21.6493 98.5879 21.1547 99.1759 20.8C99.7732 20.4453 100.464 20.268 101.248 20.268C102.004 20.268 102.676 20.4453 103.264 20.8C103.861 21.1453 104.356 21.6353 104.748 22.27C105.14 22.8953 105.397 23.642 105.518 24.51ZM100.184 24.51C100.184 24.902 100.263 25.252 100.422 25.56C100.59 25.868 100.819 26.1107 101.108 26.288C101.397 26.456 101.729 26.54 102.102 26.54C102.494 26.54 102.863 26.456 103.208 26.288C103.553 26.1107 103.857 25.868 104.118 25.56C104.379 25.252 104.575 24.902 104.706 24.51C104.575 24.1087 104.379 23.754 104.118 23.446C103.857 23.138 103.553 22.8953 103.208 22.718C102.863 22.5407 102.494 22.452 102.102 22.452C101.729 22.452 101.397 22.5407 101.108 22.718C100.819 22.8953 100.59 23.138 100.422 23.446C100.263 23.754 100.184 24.1087 100.184 24.51ZM113.851 28.724C112.88 28.724 112.012 28.5467 111.247 28.192C110.491 27.8373 109.894 27.3427 109.455 26.708C109.016 26.064 108.797 25.3173 108.797 24.468C108.797 23.6373 109.007 22.9093 109.427 22.284C109.847 21.6493 110.421 21.1547 111.149 20.8C111.886 20.4453 112.717 20.268 113.641 20.268C114.602 20.268 115.419 20.478 116.091 20.898C116.772 21.3087 117.295 21.892 117.659 22.648C118.032 23.404 118.219 24.2953 118.219 25.322H111.107V23.6H116.609L115.671 24.202C115.634 23.7913 115.531 23.446 115.363 23.166C115.195 22.8767 114.971 22.6573 114.691 22.508C114.42 22.3587 114.094 22.284 113.711 22.284C113.291 22.284 112.932 22.368 112.633 22.536C112.334 22.704 112.101 22.9373 111.933 23.236C111.765 23.5253 111.681 23.866 111.681 24.258C111.681 24.762 111.793 25.1913 112.017 25.546C112.25 25.8913 112.586 26.1573 113.025 26.344C113.473 26.5307 114.019 26.624 114.663 26.624C115.251 26.624 115.834 26.5493 116.413 26.4C117.001 26.2413 117.533 26.022 118.009 25.742V27.562C117.458 27.9353 116.828 28.2247 116.119 28.43C115.419 28.626 114.663 28.724 113.851 28.724ZM128.71 25.896C128.71 26.512 128.524 27.03 128.15 27.45C127.777 27.87 127.245 28.1873 126.554 28.402C125.864 28.6167 125.033 28.724 124.062 28.724C123.064 28.724 122.186 28.6027 121.43 28.36C120.684 28.1173 120.1 27.7767 119.68 27.338C119.26 26.8993 119.036 26.3907 119.008 25.812H121.906C121.972 26.0267 122.098 26.2133 122.284 26.372C122.48 26.5213 122.737 26.638 123.054 26.722C123.372 26.7967 123.75 26.834 124.188 26.834C124.758 26.834 125.187 26.778 125.476 26.666C125.775 26.554 125.924 26.386 125.924 26.162C125.924 25.9847 125.812 25.854 125.588 25.77C125.364 25.6767 124.982 25.6067 124.44 25.56L123.026 25.448C122.084 25.3827 121.332 25.2427 120.772 25.028C120.222 24.804 119.825 24.5193 119.582 24.174C119.34 23.8193 119.218 23.418 119.218 22.97C119.218 22.3633 119.405 21.864 119.778 21.472C120.161 21.0707 120.688 20.772 121.36 20.576C122.042 20.3707 122.835 20.268 123.74 20.268C124.636 20.268 125.434 20.3847 126.134 20.618C126.834 20.8513 127.394 21.178 127.814 21.598C128.234 22.0087 128.477 22.494 128.542 23.054H125.644C125.598 22.8767 125.495 22.718 125.336 22.578C125.178 22.4287 124.958 22.3073 124.678 22.214C124.398 22.1207 124.039 22.074 123.6 22.074C123.087 22.074 122.695 22.13 122.424 22.242C122.163 22.354 122.032 22.5127 122.032 22.718C122.032 22.8767 122.112 23.0027 122.27 23.096C122.438 23.1893 122.746 23.2547 123.194 23.292L125.056 23.432C125.98 23.488 126.708 23.6233 127.24 23.838C127.772 24.0433 128.15 24.3187 128.374 24.664C128.598 25.0093 128.71 25.42 128.71 25.896ZM129.092 22.62V21.374L130.716 20.716L131.948 18.35H133.572V20.506H136.932V22.62H133.572V24.972C133.572 25.5507 133.688 25.9567 133.922 26.19C134.155 26.4233 134.58 26.54 135.196 26.54C135.588 26.54 135.933 26.5073 136.232 26.442C136.54 26.3673 136.82 26.274 137.072 26.162V28.318C136.792 28.4207 136.423 28.514 135.966 28.598C135.508 28.682 135.037 28.724 134.552 28.724C133.665 28.724 132.937 28.5887 132.368 28.318C131.808 28.0473 131.392 27.66 131.122 27.156C130.851 26.6427 130.716 26.0453 130.716 25.364V22.62H129.092ZM142.671 28.724C141.701 28.724 140.833 28.5467 140.067 28.192C139.311 27.8373 138.714 27.3427 138.275 26.708C137.837 26.064 137.617 25.3173 137.617 24.468C137.617 23.6373 137.827 22.9093 138.247 22.284C138.667 21.6493 139.241 21.1547 139.969 20.8C140.707 20.4453 141.537 20.268 142.461 20.268C143.423 20.268 144.239 20.478 144.911 20.898C145.593 21.3087 146.115 21.892 146.479 22.648C146.853 23.404 147.039 24.2953 147.039 25.322H139.927V23.6H145.429L144.491 24.202C144.454 23.7913 144.351 23.446 144.183 23.166C144.015 22.8767 143.791 22.6573 143.511 22.508C143.241 22.3587 142.914 22.284 142.531 22.284C142.111 22.284 141.752 22.368 141.453 22.536C141.155 22.704 140.921 22.9373 140.753 23.236C140.585 23.5253 140.501 23.866 140.501 24.258C140.501 24.762 140.613 25.1913 140.837 25.546C141.071 25.8913 141.407 26.1573 141.845 26.344C142.293 26.5307 142.839 26.624 143.483 26.624C144.071 26.624 144.655 26.5493 145.233 26.4C145.821 26.2413 146.353 26.022 146.829 25.742V27.562C146.279 27.9353 145.649 28.2247 144.939 28.43C144.239 28.626 143.483 28.724 142.671 28.724Z" fill="#AA71FF"/>
<path d="M40.462 20.52H43.052L43.57 23.628V28.5H40.966V23.236L40.462 20.52ZM46.552 20.296C47.3173 20.296 47.966 20.45 48.498 20.758C49.0393 21.066 49.45 21.5 49.73 22.06C50.0193 22.6107 50.164 23.2733 50.164 24.048V28.5H47.56V24.44C47.56 23.7773 47.3967 23.278 47.07 22.942C46.7433 22.5967 46.2767 22.424 45.67 22.424C45.2407 22.424 44.8673 22.5173 44.55 22.704C44.2327 22.8813 43.99 23.138 43.822 23.474C43.654 23.8007 43.57 24.1927 43.57 24.65L42.744 24.216C42.8467 23.3667 43.0753 22.6527 43.43 22.074C43.794 21.4953 44.242 21.0567 44.774 20.758C45.3153 20.45 45.908 20.296 46.552 20.296ZM56.3845 28.724C55.3765 28.724 54.4945 28.5467 53.7385 28.192C52.9825 27.8373 52.3945 27.3427 51.9745 26.708C51.5545 26.0733 51.3445 25.3407 51.3445 24.51C51.3445 23.67 51.5545 22.9373 51.9745 22.312C52.3945 21.6773 52.9825 21.1827 53.7385 20.828C54.5038 20.4733 55.3858 20.296 56.3845 20.296C57.3925 20.296 58.2745 20.4733 59.0305 20.828C59.7865 21.1827 60.3745 21.6773 60.7945 22.312C61.2238 22.9373 61.4385 23.67 61.4385 24.51C61.4385 25.35 61.2238 26.0873 60.7945 26.722C60.3745 27.3473 59.7865 27.8373 59.0305 28.192C58.2745 28.5467 57.3925 28.724 56.3845 28.724ZM56.3845 26.764C56.8978 26.764 57.3318 26.6753 57.6865 26.498C58.0505 26.3113 58.3258 26.05 58.5125 25.714C58.7085 25.378 58.8065 24.9767 58.8065 24.51C58.8065 24.0433 58.7085 23.642 58.5125 23.306C58.3258 22.9607 58.0505 22.6993 57.6865 22.522C57.3318 22.3353 56.8978 22.242 56.3845 22.242C55.8898 22.242 55.4605 22.3353 55.0965 22.522C54.7325 22.6993 54.4525 22.9607 54.2565 23.306C54.0605 23.642 53.9625 24.0433 53.9625 24.51C53.9625 24.9767 54.0605 25.378 54.2565 25.714C54.4525 26.05 54.7325 26.3113 55.0965 26.498C55.4605 26.6753 55.8898 26.764 56.3845 26.764Z" fill="#195FB5"/>
<defs>
<linearGradient id="paint0_linear_4380_16" x1="16" y1="3" x2="16" y2="28" gradientUnits="userSpaceOnUse">
<stop stop-color="#7749FF"/>
<stop offset="0.5" stop-color="#8D4BFF"/>
<stop offset="1" stop-color="#1F84FF"/>
</linearGradient>
</defs>
</svg>
