<svg width="150" height="146" viewBox="0 0 150 146" fill="none" xmlns="http://www.w3.org/2000/svg">
<path d="M126.157 86.7355C137.1 75.3535 144 65.8231 144 51.4701C144 43.4841 141.671 35.686 137.32 29.1057C132.969 22.5254 126.802 17.4725 119.632 14.6144C112.462 11.7563 104.628 11.2274 97.1627 13.0976C89.6979 14.9678 82.9542 19.1491 77.8221 25.0892M126.157 86.7355C124.796 88.1511 123.18 89.2741 121.402 90.0403C119.624 90.8064 117.718 91.2008 115.793 91.2008C113.868 91.2008 111.962 90.8064 110.184 90.0403C108.633 89.372 107.206 88.4324 105.963 87.2639M126.157 86.7355C128.744 84.0439 130.197 80.3938 130.197 76.5879C130.197 72.782 128.744 69.1319 126.157 66.4403L113.178 52.9341C111.633 51.3273 109.8 50.0526 107.782 49.183C105.764 48.3133 103.601 47.8657 101.417 47.8657C99.2323 47.8657 97.0693 48.3133 95.0513 49.183C93.0333 50.0526 91.1998 51.3273 89.6556 52.9341L77.8566 65.2059C75.2687 67.8967 71.7593 69.4083 68.1 69.4083C64.4407 69.4083 60.9313 67.8967 58.3434 65.2059C55.7563 62.5143 54.3029 58.8643 54.3029 55.0584C54.3029 51.2524 55.7563 47.6024 58.3434 44.9108L77.8221 25.0892M77.8221 25.0892C77.0567 25.8328 76.0487 26.2469 75.0014 26.2483C73.954 26.2496 72.9451 25.838 72.1779 25.0964C67.0462 19.1567 60.3031 14.9756 52.839 13.1052C45.3748 11.2348 37.5408 11.7631 30.3713 14.6203C23.2019 17.4775 17.0343 22.5293 12.6831 29.1084C8.3318 35.6876 6.00154 43.4847 6 51.4701C6 67.9761 16.35 80.1761 26.7 90.9409L64.8915 129.421C66.1545 130.834 67.6782 131.967 69.3716 132.753C71.0651 133.54 72.8936 133.963 74.7478 133.998C76.6021 134.032 78.444 133.678 80.1637 132.956C81.8834 132.234 83.4454 131.159 84.7566 129.795C86.1151 128.38 87.192 126.7 87.9259 124.852C88.6598 123.004 89.0363 121.023 89.0337 119.024C89.0311 117.024 88.6496 115.045 87.911 113.199C87.2703 111.598 86.3719 110.124 85.2561 108.84M85.2561 108.84C85.0759 108.654 84.9001 108.462 84.729 108.265C84.9097 108.452 85.0855 108.644 85.2561 108.84ZM85.2561 108.84C86.48 110.108 87.9113 111.143 89.4849 111.894C91.2903 112.756 93.2454 113.228 95.2313 113.28C97.2173 113.331 99.1926 112.963 101.037 112.196C102.882 111.43 104.558 110.281 105.962 108.82C107.367 107.359 108.472 105.616 109.209 103.697C109.946 101.779 110.3 99.7242 110.25 97.6586C110.2 95.5931 109.747 93.5597 108.919 91.6819C108.192 90.0367 107.191 88.5411 105.963 87.2639M105.963 87.2639C105.781 87.0926 105.603 86.9164 105.429 86.7355C105.612 86.9071 105.79 87.0833 105.963 87.2639Z" stroke="url(#paint0_linear_4347_437)" stroke-width="12" stroke-linecap="round" stroke-linejoin="round"/>
<defs>
<linearGradient id="paint0_linear_4347_437" x1="75" y1="12" x2="75" y2="134" gradientUnits="userSpaceOnUse">
<stop stop-color="#7749FF"/>
<stop offset="0.5" stop-color="#8D4BFF"/>
<stop offset="1" stop-color="#1F84FF"/>
</linearGradient>
</defs>
</svg>
